<svg xmlns="http://www.w3.org/2000/svg" viewBox="0 0 400 120" width="400" height="120" fill="none">
  <!-- Horizontal nav logo — dark theme (light wordmark, for dark surfaces) -->
  <defs>
    <linearGradient id="logoDarkShieldGrad" x1="256" y1="40" x2="256" y2="450" gradientUnits="userSpaceOnUse">
      <stop offset="0%" stop-color="#131b2e"/>
      <stop offset="100%" stop-color="#080e1a"/>
    </linearGradient>
    <linearGradient id="logoDarkAmber" x1="120" y1="120" x2="392" y2="380" gradientUnits="userSpaceOnUse">
      <stop offset="0%" stop-color="#fbbf24"/>
      <stop offset="100%" stop-color="#f59e0b"/>
    </linearGradient>
  </defs>
  <g transform="translate(-12.4, 10.4) scale(0.2)">
    <path d="M256 52 L400 110 C400 272 338 392 256 444 C174 392 112 272 112 110 Z"
          fill="url(#logoDarkShieldGrad)"
          stroke="url(#logoDarkAmber)"
          stroke-width="12"
          stroke-linejoin="round"/>
    <path d="M256 80 L374 128 C374 262 322 364 256 410 C190 364 138 262 138 128 Z"
          stroke="#232f48"
          stroke-width="4"
          stroke-linejoin="round"
          fill="none"/>
    <path d="M148 256 H202 L232 184 L270 328 L306 218 L326 256 H364"
          stroke="url(#logoDarkAmber)"
          stroke-width="14"
          stroke-linecap="round"
          stroke-linejoin="round"/>
    <circle cx="270" cy="328" r="6" fill="#f59e0b"/>
    <circle cx="232" cy="184" r="6" fill="#fbbf24"/>
  </g>
  <text x="90" y="74" font-family="Chivo, system-ui, sans-serif" font-size="46" font-weight="800" letter-spacing="-1">
    <tspan fill="#ffffff">Bid</tspan><tspan fill="#f59e0b">Pulse</tspan>
  </text>
</svg>
